<?xml version="1.0" encoding="UTF-8" standalone="no"?><!DOCTYPE svg PUBLIC "-//W3C//DTD SVG 1.1//EN" "http://www.w3.org/Graphics/SVG/1.1/DTD/svg11.dtd"><svg width="100%" height="100%" viewBox="0 0 2000 2000" version="1.1" xmlns="http://www.w3.org/2000/svg" xmlns:xlink="http://www.w3.org/1999/xlink" xml:space="preserve" xmlns:serif="http://www.serif.com/" style="fill-rule:evenodd;clip-rule:evenodd;stroke-linejoin:round;stroke-miterlimit:2;"><g id="Letter"><path d="M935.7,738.118l-89.538,327.382c-1.298,5.076 -2.109,9.676 -2.433,13.8c-0.324,4.124 -0.811,7.772 -1.46,10.944c-1.946,45.047 29.522,67.57 94.404,67.57l277.374,0l25.304,-93.266l-240.391,0l89.538,-325.479l240.391,0l25.304,-93.266l-277.374,0c-76.562,0 -123.602,30.771 -141.12,92.314Z" style="fill:#fff;"/></g><g id="Crystal"><path d="M1729.782,270.217l-426.768,1592.723l-1165.954,-1165.954l1592.722,-426.769Zm-141.421,141.421l-1258.117,337.112l921.005,921.005l337.112,-1258.117Z" style="fill:#fff;"/></g></svg>